# xmcd
#
# Track frame offsets: 
#        150
#        42947
#        85205
#        128615
#        162813
#        196798
#        230970
#        265500
#        310328
#
# Disc length: 4323 seconds
#
# Revision: 0
# Processed by: cddbd v1.5.2PL0 Copyright (c) Steve Scherf et al.
# Submitted via: ExactAudioCopy v1.0b1
#
DISCID=6d10e109
DTITLE=Various Artist - Music Pakistan - Classical - Vol. 14
DYEAR=2002
DGENRE=Classical
TTITLE0=Ustad Amanat Ali Khan - Baju Band Khul Khul Jayay
TTITLE1=Ustad Amanat Ali Khan - Jaao Qadar Nahin
TTITLE2=Ustad Amanat Ali Khan - Lagay Turay Nainwa 
TTITLE3=Ustad Ali Baksh Zahoor - Nain Us Se Lagay
TTITLE4=Ustad Ali Baksh Zahoor - Laakh Jatan Kar Haari
TTITLE5=Ustad Ali Baksh Zahoor - Jao Qadar Nahin
TTITLE6=Ustad Ali Baksh Zahoor - Nain Moray Taras Rahey
TTITLE7=Ustad Umeed Ali Khan - Aali Ri Kaisay
TTITLE8=Ustad Umeed Ali Khan - Wohi Rang Rangya
EXTD=
EXTT0=
EXTT1=
EXTT2=
EXTT3=
EXTT4=
EXTT5=
EXTT6=
EXTT7=
EXTT8=
PLAYORDER=
